<?xml version="1.0" encoding="iso-8859-1"?>
<!-- Generator: Adobe Illustrator 19.0.0, SVG Export Plug-In . SVG Version: 6.00 Build 0)  -->
<svg version="1.1" id="Capa_1" xmlns="http://www.w3.org/2000/svg" xmlns:xlink="http://www.w3.org/1999/xlink" x="0px" y="0px"
	 viewBox="0 0 512 512" style="enable-background:new 0 0 512 512; fill: #555555" xml:space="preserve">
<g>
	<g>
		<path d="M71.48,376.458H59.226c-24.271,0-44.018-19.747-44.018-44.019v-79.895c0-4.199-3.404-7.604-7.604-7.604
			S0,248.344,0,252.544v79.895c0,32.657,26.568,59.227,59.226,59.227H71.48c4.2,0,7.604-3.405,7.604-7.604
			C79.084,379.862,75.681,376.458,71.48,376.458z"/>
	</g>
</g>
<g>
	<g>
		<path d="M452.762,34.24H59.226C26.568,34.24,0,60.809,0,93.466v131.596c0,4.199,3.404,7.604,7.604,7.604s7.604-3.405,7.604-7.604
			V93.466c0-24.272,19.747-44.019,44.018-44.019h393.536c24.278,0,44.03,19.747,44.03,44.019v238.972
			c0,24.272-19.751,44.019-44.03,44.019H324.511c-0.023,0-0.046-0.003-0.069-0.003h-58.3c-4.2,0-7.604,3.405-7.604,7.604
			s3.404,7.604,7.604,7.604h15.139c0.023,0,0.046,0.003,0.069,0.003h35.488v30.766H263.1c-4.2,0-7.604,3.405-7.604,7.604
			c0,4.199,3.404,7.604,7.604,7.604h61.342h4.488c15.312,0,28.186,10.639,31.619,24.914H258.031c-4.2,0-7.604,3.405-7.604,7.604
			c0,4.199,3.404,7.604,7.604,7.604h111.02c4.2,0,7.604-3.405,7.604-7.604c0-25.268-19.741-46.001-44.609-47.612v-30.878h120.716
			c32.664,0,59.238-26.569,59.238-59.227V93.466C512,60.809,485.426,34.24,452.762,34.24z"/>
	</g>
</g>
<g>
	<g>
		<path d="M390.234,73.182H59.226c-11.185,0-20.284,9.104-20.284,20.297v238.95c0,11.191,9.099,20.297,20.284,20.297h10.227
			c4.2,0,7.604-3.405,7.604-7.604c0-4.199-3.404-7.604-7.604-7.604H59.226c-2.799,0-5.076-2.282-5.076-5.089V93.478
			c0-2.805,2.277-5.089,5.076-5.089h331.009c4.2,0,7.604-3.405,7.604-7.604C397.838,76.586,394.435,73.182,390.234,73.182z"/>
	</g>
</g>
<g>
	<g>
		<path d="M452.762,73.182h-37.18c-4.2,0-7.604,3.405-7.604,7.604c0,4.199,3.404,7.604,7.604,7.604h37.18
			c2.806,0,5.089,2.282,5.089,5.089v238.95c0,2.805-2.282,5.088-5.089,5.088H265.128c-4.2,0-7.604,3.405-7.604,7.604
			s3.404,7.604,7.604,7.604h187.634c11.191,0,20.297-9.104,20.297-20.297V93.478C473.059,82.287,463.954,73.182,452.762,73.182z"/>
	</g>
</g>
<g>
	<g>
		<path d="M255.487,265.507c-1.439-1.546-3.455-2.425-5.567-2.425H85.674c-2.112,0-4.128,0.878-5.567,2.425
			c-1.439,1.546-2.17,3.62-2.017,5.727l14.417,199.469c0.287,3.976,3.597,7.055,7.584,7.055h135.412
			c3.988,0,7.297-3.079,7.584-7.055l14.417-199.469C257.657,269.129,256.926,267.053,255.487,265.507z M131.804,278.291h0.001
			h76.062c-0.247,29.723-4.494,73.806-16.017,85.514c-1.926,1.959-3.373,2.185-4.293,2.185c-3.418,0-5.566-1.163-10.483-11.788
			c-2.813-6.077-6-12.966-12.807-15.44c-3.96-1.441-8.296-1.075-12.888,1.086c-4.551,2.142-8.557,2.152-11.907,0.026
			c-4.658-2.955-7.668-9.817-7.668-17.479V278.291z M228.429,462.552H107.165L93.847,278.291h22.749v44.103
			c0,12.938,5.642,24.556,14.726,30.32c7.806,4.954,17.228,5.271,26.531,0.893c0.639-0.3,1.054-0.42,1.281-0.466
			c1.17,1.035,3.013,5.018,4.138,7.448c3.798,8.207,9.537,20.61,24.285,20.61c5.569,0,10.803-2.326,15.133-6.726
			c17.931-18.22,20.186-74.627,20.378-96.181h18.679L228.429,462.552z"/>
	</g>
</g>
<g>
</g>
<g>
</g>
<g>
</g>
<g>
</g>
<g>
</g>
<g>
</g>
<g>
</g>
<g>
</g>
<g>
</g>
<g>
</g>
<g>
</g>
<g>
</g>
<g>
</g>
<g>
</g>
<g>
</g>
</svg>
