<?xml version="1.0" encoding="iso-8859-1"?>
<!-- Generator: Adobe Illustrator 19.0.0, SVG Export Plug-In . SVG Version: 6.00 Build 0)  -->
<svg version="1.1" id="Capa_1" xmlns="http://www.w3.org/2000/svg" xmlns:xlink="http://www.w3.org/1999/xlink" x="0px" y="0px"
	 viewBox="0 0 512 512" style="enable-background:new 0 0 512 512; fill: #555555" xml:space="preserve">
<g>
	<g>
		<path d="M452.763,34.24h-52.789c-4.2,0-7.604,3.405-7.604,7.604c0,4.199,3.404,7.604,7.604,7.604h52.789
			c24.278,0,44.03,19.747,44.03,44.019v238.972c0,24.272-19.751,44.019-44.03,44.019H59.227c-24.272,0-44.019-19.747-44.019-44.019
			V93.467c0-24.272,19.747-44.019,44.019-44.019h315.398c4.2,0,7.604-3.405,7.604-7.604c0-4.199-3.404-7.604-7.604-7.604H59.227
			C26.569,34.24,0,60.809,0,93.467v238.972c0,32.657,26.569,59.227,59.227,59.227h120.728v30.878
			c-24.867,1.612-44.609,22.344-44.609,47.612c0,4.199,3.405,7.604,7.604,7.604h226.101c4.2,0,7.604-3.405,7.604-7.604
			c0-25.267-19.741-46.001-44.609-47.612v-30.878h120.716c32.664,0,59.238-26.569,59.238-59.227V93.467
			C512,60.809,485.427,34.24,452.763,34.24z M195.162,391.666h121.677v30.766h-0.001H195.162V391.666z M360.549,462.552H151.451
			c3.433-14.274,16.307-24.914,31.62-24.914H328.93C344.242,437.639,357.116,448.278,360.549,462.552z"/>
	</g>
</g>
<g>
	<g>
		<path d="M387.052,200.449l48.506,48.505c2.971,2.97,7.784,2.969,10.754,0c2.97-2.97,2.97-7.784,0-10.753l-45.377-45.376
			c5.843-24.16-1.204-49.585-18.938-67.317c-12.21-12.21-28.411-19.583-45.621-20.761c-17.028-1.165-33.924,3.786-47.551,13.942
			c-2.117,1.578-3.265,4.14-3.03,6.77s1.815,4.95,4.176,6.13l33.845,16.905c4.855,2.425,8.474,6.595,10.193,11.743
			c1.717,5.147,1.329,10.656-1.097,15.51c-2.425,4.854-6.594,8.474-11.741,10.192c-5.148,1.719-10.658,1.329-15.511-1.096
			l-34.626-17.296c-2.325-1.161-5.082-1.055-7.312,0.283c-2.228,1.337-3.618,3.721-3.687,6.319
			c-0.521,19.802,6.903,38.417,20.903,52.419c18.06,18.06,43.875,25.007,68.359,18.682l83.004,83.004
			c1.485,1.484,3.432,2.227,5.378,2.227s3.892-0.742,5.378-2.227c2.97-2.97,2.97-7.784,0-10.753l-86.191-86.19
			c-2.031-2.029-5.03-2.743-7.754-1.846c-20.311,6.686-42.313,1.456-57.417-13.65c-7.981-7.982-13.247-17.869-15.39-28.636
			l22.562,11.27c8.488,4.24,18.118,4.921,27.122,1.917c9-3.004,16.292-9.334,20.533-17.823c4.24-8.489,4.92-18.121,1.916-27.121
			c-3.004-9.001-9.334-16.293-17.822-20.533l-21.207-10.593c20.655-8.745,45.423-4.45,61.839,11.966
			c14.831,14.831,20.168,36.5,13.924,56.551C384.33,195.509,385.054,198.45,387.052,200.449z"/>
	</g>
</g>
<g>
	<g>
		<path d="M319.382,317.479l-39.527-39.527c-6.132-6.131-14.283-9.508-22.954-9.508c-5.008,0.001-9.84,1.133-14.211,3.266
			l-69.982-69.981l-3.839-34.356c-0.27-2.415-1.678-4.555-3.788-5.76l-59.862-34.164c-2.978-1.7-6.723-1.196-9.146,1.227
			l-25.699,25.699c-2.424,2.423-2.926,6.168-1.227,9.146l34.163,59.862c1.204,2.111,3.345,3.518,5.76,3.788l35.722,3.992
			l69.246,69.245c-2.897,5.97-3.958,12.771-2.858,19.471c0.68,4.145,4.597,6.944,8.736,6.271c4.144-0.681,6.951-4.593,6.271-8.736
			c-0.901-5.482,0.902-11.097,4.823-15.018l13.69-13.69c3.259-3.259,7.592-5.053,12.201-5.053c4.608,0,8.94,1.794,12.199,5.053
			l39.527,39.527c1.485,1.484,3.432,2.227,5.378,2.227c1.946,0,3.892-0.742,5.378-2.227
			C322.351,325.262,322.351,320.447,319.382,317.479z M144.126,215.787l-29.526-3.299l-29.37-51.464l17.49-17.49l51.463,29.371
			l3.299,29.526L144.126,215.787z M223.516,288.382l-65.239-65.239l7.169-7.169l65.239,65.239L223.516,288.382z"/>
	</g>
</g>
<g>
	<g>
		<path d="M452.763,73.18H59.223c-11.181,0-20.277,9.105-20.277,20.297v238.947c0,11.192,9.096,20.297,20.277,20.297h15.068
			c4.199,0,7.604-3.405,7.604-7.604c0-4.199-3.405-7.604-7.604-7.604H59.223c-2.795,0-5.069-2.283-5.069-5.09V93.477
			c0-2.806,2.274-5.09,5.069-5.09h393.542c2.806,0,5.09,2.283,5.09,5.09v238.947c0,1.915-1.072,3.655-2.8,4.543
			c-0.705,0.363-1.475,0.546-2.289,0.546H99.639c-4.199,0-7.604,3.405-7.604,7.604c0,4.199,3.405,7.605,7.604,7.605h353.125
			c3.213,0,6.41-0.771,9.242-2.229c6.819-3.503,11.054-10.426,11.054-18.068V93.477C473.061,82.285,463.956,73.18,452.763,73.18z"/>
	</g>
</g>
<g>
</g>
<g>
</g>
<g>
</g>
<g>
</g>
<g>
</g>
<g>
</g>
<g>
</g>
<g>
</g>
<g>
</g>
<g>
</g>
<g>
</g>
<g>
</g>
<g>
</g>
<g>
</g>
<g>
</g>
</svg>
