<?xml version="1.0" encoding="iso-8859-1"?>
<!-- Generator: Adobe Illustrator 19.0.0, SVG Export Plug-In . SVG Version: 6.00 Build 0)  -->
<svg version="1.1" id="Capa_1" xmlns="http://www.w3.org/2000/svg" xmlns:xlink="http://www.w3.org/1999/xlink" x="0px" y="0px"
	 viewBox="0 0 512 512" style="enable-background:new 0 0 512 512;fill: #555555" xml:space="preserve">
<g>
	<g>
		<path d="M504.396,407.143H7.604c-4.199,0-7.604,3.405-7.604,7.604c0,38.145,31.032,69.177,69.177,69.177h36.421
			c4.199,0,7.604-3.405,7.604-7.604s-3.405-7.604-7.604-7.604H69.177c-27.178,0-49.728-20.194-53.435-46.365h480.516
			c-3.707,26.171-26.257,46.365-53.435,46.365H130.946c-4.199,0-7.604,3.405-7.604,7.604s3.405,7.604,7.604,7.604h311.877
			c38.145,0,69.177-31.032,69.177-69.177C512,410.547,508.595,407.143,504.396,407.143z"/>
	</g>
</g>
<g>
	<g>
		<path d="M447.168,106.026h-31.845c-4.199,0-7.604,3.405-7.604,7.604s3.404,7.604,7.604,7.604h31.845
			c15.905,0,28.844,12.94,28.844,28.844v239.32c0,4.199,3.405,7.604,7.604,7.604s7.604-3.405,7.604-7.604v-239.32
			C491.22,125.788,471.458,106.026,447.168,106.026z"/>
	</g>
</g>
<g>
	<g>
		<path d="M99.013,106.026H64.839c-24.29,0-44.052,19.762-44.052,44.052v239.32c0,4.199,3.405,7.604,7.604,7.604
			s7.604-3.405,7.604-7.604v-239.32c0-15.906,12.94-28.844,28.844-28.844h34.173c4.199,0,7.604-3.405,7.604-7.604
			S103.212,106.026,99.013,106.026z"/>
	</g>
</g>
<g>
	<g>
		<path d="M258.632,28.076c-83.64,0-151.684,68.045-151.684,151.684v41.746c0,12.956,5.045,25.136,14.204,34.296
			c9.121,9.124,21.236,14.161,34.131,14.203c4.143,13.635,10.913,26.137,19.724,36.912c-17.167,11.85-31.78,27.323-42.588,45.171
			c-2.176,3.592-1.026,8.268,2.566,10.443c1.231,0.745,2.589,1.1,3.931,1.1c2.572,0,5.083-1.306,6.512-3.666
			c10.101-16.682,23.917-31.04,40.161-41.832c19.242,17.7,44.902,28.526,73.046,28.526c28.147,0,53.809-10.828,73.051-28.531
			c7.354,4.881,14.24,10.495,20.506,16.761c7.563,7.563,14.171,15.996,19.637,25.063c1.429,2.368,3.942,3.678,6.519,3.678
			c1.336,0,2.691-0.353,3.919-1.093c3.596-2.169,4.754-6.843,2.585-10.438c-6.103-10.121-13.474-19.53-21.907-27.964
			c-6.364-6.364-13.294-12.134-20.678-17.225c8.807-10.773,15.576-23.273,19.719-36.906c12.815-0.044,24.468-5.091,33.124-13.277
			v12.948c0,11.3-9.194,20.493-20.494,20.493c-4.199,0-7.604,3.405-7.604,7.604c0,4.199,3.405,7.604,7.604,7.604
			c19.686,0,35.702-16.016,35.702-35.701V179.76C410.317,96.121,342.271,28.076,258.632,28.076z M131.906,245.051
			c-6.288-6.288-9.75-14.648-9.75-23.543c0-16.877,12.627-30.852,28.927-32.997c-0.288,3.207-0.443,6.451-0.443,9.732v40.424
			c0,5.413,0.406,10.733,1.178,15.934C144.298,253.789,137.331,250.474,131.906,245.051z M351.421,238.666
			c0,51.162-41.623,92.786-92.787,92.786c-51.162,0-92.786-41.623-92.786-92.786v-40.127c2.333,0.196,4.679,0.311,7.03,0.311
			c29.152,0,56.068-15.45,71.113-39.687c15.046,24.235,41.961,39.687,71.113,39.687c12.574,0,24.828-2.797,36.008-8.146
			c0.201,2.487,0.307,5,0.307,7.538V238.666z M167.044,183.384c7.134-44.124,45.486-77.926,91.591-77.926
			c43.125,0,79.471,29.573,89.827,69.504c-10.154,5.693-21.583,8.682-33.357,8.682c-28.296,0-54.015-17.791-63.998-44.272
			c-1.117-2.962-3.95-4.921-7.115-4.921s-5.999,1.961-7.115,4.921c-9.982,26.48-35.701,44.272-63.998,44.272
			C170.926,183.643,168.978,183.548,167.044,183.384z M365.45,254.599c0.773-5.201,1.177-10.521,1.177-15.933v-40.424
			c0-3.282-0.156-6.527-0.444-9.736c7.237,0.943,13.928,4.214,19.174,9.459c6.288,6.288,9.75,14.648,9.75,23.542
			C395.109,238.637,382.104,252.782,365.45,254.599z M395.109,186.256c-8.592-8.126-19.65-12.768-31.454-13.205
			c-11.379-47.438-54.144-82.803-105.021-82.803c-50.878,0-93.643,35.367-105.021,82.805c-12.158,0.455-23.179,5.405-31.458,13.235
			v-6.527c0.001-75.253,61.224-136.476,136.478-136.476s136.476,61.223,136.476,136.476V186.256z"/>
	</g>
</g>
<g>
	<g>
		<path d="M317.66,228.215c-4.947-4.948-11.526-7.672-18.522-7.672c-6.998,0-13.576,2.725-18.523,7.672
			c-2.97,2.97-2.97,7.784,0,10.753c2.97,2.97,7.784,2.97,10.753,0c4.285-4.284,11.255-4.285,15.539,0
			c1.484,1.484,3.431,2.227,5.377,2.227s3.892-0.742,5.377-2.227C320.63,235.998,320.63,231.183,317.66,228.215z"/>
	</g>
</g>
<g>
	<g>
		<path d="M236.655,228.216c-10.214-10.214-26.832-10.213-37.047,0c-2.97,2.97-2.97,7.784,0,10.754c2.97,2.969,7.784,2.97,10.754,0
			c4.285-4.285,11.255-4.285,15.539,0c1.484,1.484,3.431,2.227,5.377,2.227c1.946,0,3.892-0.744,5.377-2.228
			C239.624,235.999,239.624,231.184,236.655,228.216z"/>
	</g>
</g>
<g>
	<g>
		<path d="M285.683,275.943c-2.97-2.969-7.784-2.969-10.754,0c-8.984,8.984-23.604,8.984-32.589,0c-2.97-2.971-7.784-2.97-10.753,0
			c-2.97,2.97-2.97,7.784,0,10.753c7.457,7.457,17.253,11.186,27.048,11.186c9.795,0,19.591-3.729,27.048-11.186
			C288.652,283.727,288.652,278.912,285.683,275.943z"/>
	</g>
</g>
<g>
	<g>
		<path d="M451.176,138.467h-28.25c-4.199,0-7.604,3.405-7.604,7.604s3.405,7.604,7.604,7.604h20.646v221.022H68.444V153.675H91.41
			c4.199,0,7.604-3.405,7.604-7.604s-3.405-7.604-7.604-7.604H60.84c-4.199,0-7.604,3.405-7.604,7.604V382.3
			c0,4.199,3.405,7.604,7.604,7.604h390.337c4.199,0,7.604-3.405,7.604-7.604v-236.23
			C458.78,141.871,455.376,138.467,451.176,138.467z"/>
	</g>
</g>
<g>
</g>
<g>
</g>
<g>
</g>
<g>
</g>
<g>
</g>
<g>
</g>
<g>
</g>
<g>
</g>
<g>
</g>
<g>
</g>
<g>
</g>
<g>
</g>
<g>
</g>
<g>
</g>
<g>
</g>
</svg>
