<?xml version="1.0" encoding="iso-8859-1"?>
<!-- Generator: Adobe Illustrator 19.0.0, SVG Export Plug-In . SVG Version: 6.00 Build 0)  -->
<svg version="1.1" id="Capa_1" xmlns="http://www.w3.org/2000/svg" xmlns:xlink="http://www.w3.org/1999/xlink" x="0px" y="0px"
	 viewBox="0 0 512 512" style="enable-background:new 0 0 512 512; fill: #555555" xml:space="preserve">
<g>
	<g>
		<path d="M67.983,24.215c-13.429,0-24.355,10.926-24.355,24.355c0,13.43,10.926,24.355,24.355,24.355
			c13.429,0,24.355-10.926,24.355-24.355C92.338,35.141,81.412,24.215,67.983,24.215z M67.983,57.707
			c-5.039,0-9.138-4.1-9.138-9.138c0-5.038,4.099-9.138,9.138-9.138c5.039,0,9.138,4.1,9.138,9.138
			C77.121,53.609,73.022,57.707,67.983,57.707z"/>
	</g>
</g>
<g>
	<g>
		<path d="M124.362,24.215c-13.429,0-24.355,10.926-24.355,24.355c0,13.43,10.926,24.355,24.355,24.355
			c13.429,0,24.355-10.926,24.355-24.355C148.717,35.141,137.791,24.215,124.362,24.215z M124.362,57.707
			c-5.039,0-9.138-4.1-9.138-9.138c0-5.038,4.099-9.138,9.138-9.138c5.039,0,9.138,4.1,9.138,9.138
			C133.5,53.609,129.401,57.707,124.362,57.707z"/>
	</g>
</g>
<g>
	<g>
		<path d="M180.743,24.215c-13.43,0.001-24.355,10.926-24.355,24.355c0,13.43,10.926,24.355,24.355,24.355
			c13.43,0,24.356-10.926,24.356-24.355C205.098,35.141,194.172,24.215,180.743,24.215z M180.742,57.707
			c-5.039,0-9.138-4.1-9.138-9.138c0-5.038,4.099-9.138,9.138-9.138c5.039,0,9.138,4.1,9.138,9.138
			C189.88,53.609,185.781,57.707,180.742,57.707z"/>
	</g>
</g>
<g>
	<g>
		<path d="M484.237,101.24c-2.434-3.424-7.186-4.227-10.611-1.791c-3.425,2.436-4.226,7.186-1.792,10.609
			c10.713,15.062,16.375,32.83,16.375,51.383c0,48.945-39.82,88.765-88.764,88.765c-48.945,0-88.765-39.82-88.765-88.765
			c0-48.945,39.82-88.765,88.765-88.765c20.241,0,39.302,6.634,55.122,19.185c3.292,2.611,8.077,2.06,10.69-1.232
			c2.611-3.292,2.059-8.077-1.233-10.69c-18.537-14.707-40.869-22.481-64.579-22.481c-57.336,0-103.982,46.646-103.982,103.982
			s46.646,103.982,103.982,103.982s103.981-46.646,103.981-103.982C503.428,139.711,496.792,118.892,484.237,101.24z"/>
	</g>
</g>
<g>
	<g>
		<path d="M400.731,281.763c-4.203,0-7.609,3.407-7.609,7.609v182.506c0,13.733-11.178,24.905-24.916,24.905H48.695
			c-13.732,0-24.905-11.173-24.905-24.905V98.783h278.265c4.203,0,7.609-3.407,7.609-7.609s-3.406-7.609-7.609-7.609H23.79V40.122
			c0-13.732,11.173-24.905,24.905-24.905h319.512c13.738,0,24.916,11.173,24.916,24.905c0,4.202,3.406,7.609,7.609,7.609
			c4.203,0,7.609-3.407,7.609-7.609C408.339,17.999,390.336,0,368.207,0H48.695C26.572,0,8.572,17.999,8.572,40.122v431.756
			C8.572,494.002,26.571,512,48.695,512h319.512c22.129,0,40.133-17.999,40.133-40.122V289.372
			C408.339,285.17,404.934,281.763,400.731,281.763z"/>
	</g>
</g>
<g>
	<g>
		<path d="M265.565,143.293H96.661c-4.203,0-7.609,3.407-7.609,7.609s3.406,7.609,7.609,7.609h168.904
			c4.202,0,7.609-3.407,7.609-7.609S269.768,143.293,265.565,143.293z"/>
	</g>
</g>
<g>
	<g>
		<path d="M70.139,149.415c-1.41-6.731-10.708-8.323-14.096-2.23c-3.32,5.97,2.617,13.136,9.105,10.904
			C68.678,156.876,70.903,153.098,70.139,149.415z"/>
	</g>
</g>
<g>
	<g>
		<path d="M265.565,228.31H96.661c-4.203,0-7.609,3.407-7.609,7.609s3.406,7.609,7.609,7.609h168.904
			c4.203,0,7.609-3.407,7.609-7.609S269.768,228.31,265.565,228.31z"/>
	</g>
</g>
<g>
	<g>
		<path d="M68.059,230.534c-4.737-4.592-13.002-1.317-12.997,5.387c0.003,3.326,2.266,6.336,5.444,7.288
			c3.023,0.905,6.406-0.223,8.28-2.76C71.007,237.444,70.685,233.18,68.059,230.534z"/>
	</g>
</g>
<g>
	<g>
		<path d="M334.039,270.819h-47.675c-4.203,0-7.609,3.407-7.609,7.609c0,4.202,3.406,7.609,7.609,7.609h47.675
			c4.202,0,7.609-3.407,7.609-7.609C341.648,274.226,338.242,270.819,334.039,270.819z"/>
	</g>
</g>
<g>
	<g>
		<path d="M261,270.819h-88.761c-4.203,0-7.609,3.407-7.609,7.609c0,4.202,3.406,7.609,7.609,7.609H261
			c4.203,0,7.609-3.407,7.609-7.609C268.609,274.226,265.202,270.819,261,270.819z"/>
	</g>
</g>
<g>
	<g>
		<path d="M146.876,270.819H96.661c-4.203,0-7.609,3.407-7.609,7.609c0,4.202,3.406,7.609,7.609,7.609h50.215
			c4.203,0,7.609-3.407,7.609-7.609C154.485,274.226,151.079,270.819,146.876,270.819z"/>
	</g>
</g>
<g>
	<g>
		<path d="M68.059,273.051c-4.846-4.846-13.405-0.994-12.979,5.849c0.193,3.099,2.327,5.818,5.277,6.768
			c3.218,1.036,6.845-0.249,8.688-3.083C70.984,279.606,70.578,275.57,68.059,273.051z"/>
	</g>
</g>
<g>
	<g>
		<path d="M219.915,313.328H96.661c-4.203,0-7.609,3.407-7.609,7.609s3.406,7.609,7.609,7.609h123.254
			c4.203,0,7.609-3.407,7.609-7.609S224.118,313.328,219.915,313.328z"/>
	</g>
</g>
<g>
	<g>
		<path d="M70.139,319.454c-1.412-6.739-10.661-8.309-14.076-2.261c-1.691,2.995-1.139,6.845,1.347,9.23
			c2.276,2.183,5.746,2.725,8.585,1.358C69.056,326.307,70.832,322.792,70.139,319.454z"/>
	</g>
</g>
<g>
	<g>
		<path d="M295.998,355.836h-23.329c-4.203,0-7.609,3.407-7.609,7.609s3.406,7.609,7.609,7.609h23.329
			c4.203,0,7.609-3.407,7.609-7.609S300.201,355.836,295.998,355.836z"/>
	</g>
</g>
<g>
	<g>
		<path d="M247.305,355.836h-67.458c-4.203,0-7.609,3.407-7.609,7.609s3.406,7.609,7.609,7.609h67.458
			c4.202,0,7.609-3.407,7.609-7.609S251.508,355.836,247.305,355.836z"/>
	</g>
</g>
<g>
	<g>
		<path d="M154.484,355.836H96.661c-4.203,0-7.609,3.407-7.609,7.609s3.406,7.609,7.609,7.609h57.823
			c4.203,0,7.609-3.407,7.609-7.609S158.687,355.836,154.484,355.836z"/>
	</g>
</g>
<g>
	<g>
		<path d="M68.059,358.065c-4.844-4.844-13.403-0.982-12.979,5.851c0.193,3.103,2.322,5.818,5.277,6.767
			c3.218,1.033,6.845-0.238,8.688-3.078C70.983,364.622,70.58,360.587,68.059,358.065z"/>
	</g>
</g>
<g>
	<g>
		<path d="M330.997,398.346H222.454c-4.203,0-7.609,3.407-7.609,7.609c0,4.202,3.406,7.609,7.609,7.609h108.542
			c4.203,0,7.609-3.407,7.609-7.609C338.605,401.752,335.2,398.346,330.997,398.346z"/>
	</g>
</g>
<g>
	<g>
		<path d="M197.09,398.346H96.661c-4.203,0-7.609,3.407-7.609,7.609c0,4.202,3.406,7.609,7.609,7.609H197.09
			c4.202,0,7.609-3.407,7.609-7.609C204.699,401.752,201.293,398.346,197.09,398.346z"/>
	</g>
</g>
<g>
	<g>
		<path d="M70.139,404.468c-1.382-6.594-10.395-8.322-13.946-2.487c-3.556,5.842,2.142,13.26,8.692,11.251
			C68.552,412.107,70.924,408.255,70.139,404.468z"/>
	</g>
</g>
<g>
	<g>
		<path d="M146.876,440.855H96.661c-4.203,0-7.609,3.407-7.609,7.609s3.406,7.609,7.609,7.609h50.215
			c4.203,0,7.609-3.407,7.609-7.609S151.079,440.855,146.876,440.855z"/>
	</g>
</g>
<g>
	<g>
		<path d="M69.702,445.555c-2.579-6.121-11.476-6.14-14.051,0c-1.297,3.092-0.329,6.815,2.315,8.884
			c2.369,1.853,5.681,2.146,8.328,0.716C69.663,453.337,71.199,449.094,69.702,445.555z"/>
	</g>
</g>
<g>
	<g>
		<path d="M134.702,185.801H96.661c-4.203,0-7.609,3.407-7.609,7.609s3.406,7.609,7.609,7.609h38.041
			c4.203,0,7.609-3.407,7.609-7.609S138.905,185.801,134.702,185.801z"/>
	</g>
</g>
<g>
	<g>
		<path d="M235.131,185.801h-73.039c-4.203,0-7.609,3.407-7.609,7.609s3.406,7.609,7.609,7.609h73.039
			c4.203,0,7.609-3.407,7.609-7.609S239.335,185.801,235.131,185.801z"/>
	</g>
</g>
<g>
	<g>
		<path d="M70.139,191.922c-1.397-6.666-10.549-8.32-14.021-2.359c-3.474,5.962,2.489,13.299,9.031,11.042
			C68.676,199.389,70.903,195.602,70.139,191.922z"/>
	</g>
</g>
<g>
	<g>
		<path d="M444.075,111.341c-3.718-1.957-8.32-0.529-10.277,3.191l-40.736,77.398L363.85,161.5
			c-2.911-3.031-7.726-3.129-10.758-0.22c-3.03,2.911-3.13,7.727-0.219,10.758l36.52,38.041c1.445,1.505,3.432,2.339,5.488,2.339
			c0.353,0,0.708-0.024,1.064-0.075c2.422-0.342,4.531-1.826,5.669-3.99l45.65-86.735
			C449.222,117.899,447.793,113.298,444.075,111.341z"/>
	</g>
</g>
<g>
</g>
<g>
</g>
<g>
</g>
<g>
</g>
<g>
</g>
<g>
</g>
<g>
</g>
<g>
</g>
<g>
</g>
<g>
</g>
<g>
</g>
<g>
</g>
<g>
</g>
<g>
</g>
<g>
</g>
</svg>
